<svg width="66" height="19" viewBox="0 0 66 19" fill="none" xmlns="http://www.w3.org/2000/svg">
<g clip-path="url(#clip0_459_39776)">
<path d="M49.2175 4.54137C48.3264 5.00478 47.4353 5.46819 46.7422 6.11698C46.3462 6.39502 45.9501 6.76576 45.6531 7.04381C45.3561 7.41454 44.96 7.69259 44.663 8.06332C43.3758 9.45356 42.1877 10.9365 40.9995 12.4194C40.4054 13.1609 39.8114 13.8097 39.2173 14.4584C38.6232 15.1072 38.0291 15.756 37.3361 16.3121C36.0489 17.4243 34.7617 18.3511 33.1776 18.8145C32.3855 18.9999 31.6924 19.0926 30.9993 18.9072C30.3062 18.8145 29.7121 18.4438 29.2171 18.0731C28.722 17.7023 28.425 17.1462 28.326 16.6828C28.2269 16.2194 28.326 15.756 28.524 15.3853C28.92 14.6438 29.5141 14.2731 29.9101 14.1804C30.3062 14.0877 30.6032 14.1804 30.6032 14.0877C30.6032 14.0877 30.4052 14.0877 30.0092 14.1804C29.6131 14.2731 29.1181 14.7365 28.821 15.3853C28.623 16.034 28.722 17.0536 29.6131 17.6097C30.5042 18.1658 31.7914 18.3511 32.9795 17.8877C34.2667 17.4243 35.3558 16.4975 36.544 15.3853C37.138 14.8292 37.6331 14.1804 38.2272 13.5316C38.7222 12.8828 39.3163 12.234 39.8114 11.4926C40.9005 10.0097 41.9896 8.43405 43.3758 6.95112C43.7719 6.58039 44.0689 6.20966 44.4649 5.83893C44.762 5.56088 45.158 5.28283 45.5541 4.9121C46.3462 4.17063 47.3363 3.61454 48.4254 3.05844C49.4156 2.50234 50.6037 2.22429 51.6928 2.03893C52.881 1.85356 54.0691 1.85356 55.1583 2.03893C57.4355 2.50234 59.4158 3.89259 60.4059 5.74624C60.5049 6.02429 60.6039 6.20966 60.7029 6.48771L60.802 6.85844L60.901 7.22917C60.901 7.50722 61 7.78527 61 7.97063C61 8.24868 61 8.52673 61 8.80478C60.901 9.82429 60.4059 10.8438 59.7128 11.5853C59.0197 12.3267 58.2276 12.8828 57.3365 13.2536C56.4454 13.6243 55.3563 13.717 54.3662 13.5316C52.4849 13.1609 51.0988 11.678 50.9007 10.1023C50.7027 8.52673 51.7918 7.22917 52.98 6.85844C54.1681 6.48771 55.0592 6.85844 55.4553 7.32185C55.6533 7.50722 55.7523 7.69259 55.7523 7.87795C55.7523 8.06332 55.7523 8.156 55.6533 8.24868C55.5543 8.34137 55.2573 8.34137 54.9602 8.34137C54.6632 8.34137 54.2672 8.43405 53.8711 8.61942C53.5741 8.80478 53.277 9.2682 53.376 9.91698C53.376 10.1023 53.4751 10.195 53.5741 10.2877C53.5741 10.4731 53.7721 10.5658 53.8711 10.7511C54.1681 11.0292 54.5642 11.2145 55.0592 11.3072C55.9504 11.4926 57.1385 11.1219 58.0296 10.195C58.4257 9.73161 58.8217 9.17551 58.9207 8.52673C58.9207 8.34137 58.9207 8.24868 58.9207 8.06332L58.8217 7.5999V7.32185L58.7227 7.04381L58.5247 6.58039C57.8316 5.28283 56.4454 4.07795 54.6632 3.70722C53.079 3.33649 50.9997 3.61454 49.2175 4.54137Z" fill="url(#paint0_linear_459_39776)"/>
<path d="M42.3865 5.46819C42.5845 6.67306 42.3865 7.87794 42.0895 8.99014C41.9905 9.26819 41.9905 9.54624 41.8915 9.82428C41.7924 10.1023 41.6934 10.3804 41.5944 10.5657C41.3964 11.0292 41.1984 11.5853 40.9013 11.956C40.4063 12.8828 39.7132 13.6243 39.2181 14.3657C38.525 15.0145 37.931 15.6633 37.3369 16.1267C37.0399 16.4048 36.7428 16.5901 36.4458 16.7755C36.1487 16.9609 35.8517 17.1462 35.5547 17.3316C35.0596 17.6096 34.5646 17.8877 34.1685 18.0731C33.3764 18.4438 32.8813 18.6292 32.8813 18.6292C32.8813 18.6292 33.2774 18.3511 33.9705 17.8877C34.3665 17.7023 34.7626 17.3316 35.1586 16.9609C35.3567 16.7755 35.6537 16.5901 35.8517 16.3121C36.0497 16.034 36.3468 15.8487 36.6438 15.5706C37.2379 15.1072 37.6339 14.3657 38.228 13.717C38.7231 12.9755 39.2181 12.234 39.6142 11.3999C39.8122 11.0292 40.0102 10.5657 40.1092 10.1023C40.2082 9.91697 40.3073 9.63892 40.3073 9.45355C40.3073 9.1755 40.4063 8.99014 40.4063 8.71209C40.7033 7.78526 40.7033 6.67306 40.6043 5.74623C40.4063 4.72672 40.0102 3.89258 39.4162 3.2438C38.7231 2.59502 37.931 2.22428 37.0399 2.1316C36.2478 2.03892 35.4557 2.1316 34.8616 2.40965C34.5646 2.59502 34.3665 2.78038 34.3665 2.87306C34.2675 3.05843 34.2675 3.05843 34.2675 3.2438C34.3665 3.79989 34.8616 3.79989 35.3567 3.79989C35.5547 3.79989 35.7527 3.79989 35.9507 3.70721C36.1487 3.70721 36.3468 3.61453 36.6438 3.52185C36.8418 3.52185 37.1389 3.61453 37.2379 4.07794C37.2379 4.44867 37.0399 5.09746 36.4458 5.46819C35.9507 5.83892 35.0596 6.20965 34.0695 5.9316C33.0794 5.74624 32.0892 4.72672 31.9902 3.52185C31.9902 3.2438 31.9902 2.87306 32.0892 2.59502C32.1883 2.22428 32.3863 1.94624 32.5843 1.76087C32.9804 1.29746 33.4754 0.926723 34.0695 0.648675C35.1586 0.092577 36.4458 0.092577 37.7329 0.370626C38.9211 0.648675 40.1092 1.29746 41.0003 2.22428C41.6934 2.96575 42.1885 4.26331 42.3865 5.46819Z" fill="url(#paint1_linear_459_39776)"/>
<path d="M12.781 2.96584C13.7711 3.52194 14.8602 4.07804 15.6523 4.8195C16.0484 5.19023 16.5434 5.46828 16.8405 5.83901C17.2365 6.20974 17.5336 6.58048 17.9296 6.95121C19.3158 8.52682 20.4049 10.0097 21.4941 11.4927C21.9891 12.2341 22.5832 12.8829 23.0783 13.5317C23.6723 14.1805 24.1674 14.8293 24.7615 15.3854C25.9496 16.4976 27.0387 17.4244 28.3259 17.8878C29.5141 18.3512 30.8012 18.1658 31.6923 17.6097C32.5834 17.0536 32.7815 16.1268 32.4844 15.3854C32.2864 14.7366 31.7913 14.2732 31.3953 14.1805C31.7913 14.2732 32.3854 14.6439 32.7815 15.3854C32.8805 15.7561 33.0785 16.2195 32.8805 16.6829C32.7815 17.1463 32.4844 17.7024 31.9894 18.0732C31.4943 18.4439 30.9002 18.7219 30.2071 18.9073C29.5141 19.0927 28.722 18.9073 28.0289 18.8146C26.5437 18.4439 25.2565 17.4244 23.9694 16.3122C23.2763 15.7561 22.7812 15.1073 22.0881 14.4585C21.4941 13.8097 20.9 13.161 20.3059 12.4195C19.1178 11.0293 17.9296 9.45365 16.6425 8.0634C16.3454 7.69267 15.9494 7.41462 15.6523 7.04389C15.2563 6.67316 14.8602 6.39511 14.5632 6.11706C13.8701 5.46828 12.979 4.91218 12.0879 4.54145C11.1968 4.07804 10.2067 3.79999 9.21655 3.61462C8.22642 3.42926 7.33531 3.52194 6.4442 3.70731C4.56297 3.98535 3.1768 5.28291 2.48372 6.58048L2.28569 7.04389V7.32194V7.59999L2.18668 8.0634C2.18668 8.24877 2.18668 8.34145 2.28569 8.52682C2.3847 9.1756 2.68174 9.7317 3.1768 10.1951C4.06791 11.1219 5.35507 11.5854 6.14717 11.3073C6.34519 11.3073 6.54322 11.1219 6.74124 11.0293C6.93927 10.9366 7.13729 10.8439 7.2363 10.6585C7.33531 10.5658 7.33531 10.4732 7.43433 10.4732C7.53334 10.3805 7.53334 10.2878 7.53334 10.2878C7.63235 10.1024 7.73136 10.0097 7.73136 9.91706C7.83038 9.26828 7.53334 8.80487 7.2363 8.6195C6.93927 8.34145 6.4442 8.34145 6.14717 8.34145C5.85013 8.34145 5.55309 8.34145 5.35507 8.15609C5.25606 8.0634 5.15705 7.97072 5.25606 7.78535C5.25606 7.59999 5.35507 7.41462 5.65211 7.22926C6.04815 6.85852 6.93926 6.48779 8.12741 6.85852C9.31556 7.22926 10.3057 8.6195 10.1077 10.1951C9.90963 11.7707 8.52346 13.2536 6.64223 13.6244C5.65211 13.8097 4.66198 13.7171 3.77087 13.3463C2.87976 12.9756 2.08767 12.4195 1.39458 11.678C0.701495 10.9366 0.305446 10.0097 0.107422 8.89755C0.107422 8.6195 0.107422 8.34145 0.107422 8.0634C0.107422 7.78535 0.206434 7.50731 0.206434 7.32194L0.305446 6.95121V6.48779C0.404459 6.20974 0.503471 6.02438 0.602483 5.74633C1.69162 3.89267 3.57285 2.50243 5.85013 1.94633C7.03828 1.66828 8.22642 1.66828 9.31556 1.94633C10.6027 2.1317 11.6919 2.50243 12.781 2.96584Z" fill="url(#paint2_linear_459_39776)"/>
<path d="M20.6031 5.6535C20.5041 6.67302 20.5041 7.69253 20.8011 8.61936C20.8011 8.89741 20.9001 9.08277 20.9001 9.36082C20.9991 9.54619 21.0981 9.82424 21.0981 10.0096C21.2962 10.473 21.3952 10.9364 21.5932 11.3072C21.9893 12.1413 22.4843 12.8828 22.9794 13.6242C23.5735 14.273 23.9695 14.9218 24.5636 15.4779C24.8606 15.7559 25.0586 16.034 25.3557 16.2194C25.6527 16.4047 25.8507 16.5901 26.0488 16.8681C26.5438 17.2389 26.9399 17.6096 27.2369 17.795C27.93 18.2584 28.326 18.5364 28.326 18.5364C28.326 18.5364 27.831 18.3511 27.0389 17.9803C26.7418 17.8877 26.2468 17.6096 25.7517 17.2389C25.4547 17.0535 25.1576 16.9608 24.8606 16.6828C24.5636 16.4974 24.2665 16.2194 23.9695 16.034C23.2764 15.5706 22.7814 14.9218 22.0883 14.273C21.4942 13.5316 20.9001 12.7901 20.4051 11.8633C20.108 11.3998 19.91 10.9364 19.712 10.473C19.613 10.195 19.514 10.0096 19.4149 9.73155C19.3159 9.4535 19.3159 9.17546 19.2169 8.89741C18.8209 7.87789 18.7219 6.67302 18.8209 5.46814C19.0189 4.26326 19.514 2.9657 20.4051 2.03887C21.2962 1.11204 22.3853 0.46326 23.5735 0.185211C24.7616 -0.0928378 26.0488 -0.000154823 27.2369 0.46326C27.831 0.741309 28.326 1.11204 28.7221 1.57546C28.9201 1.8535 29.0191 2.13155 29.2172 2.50228C29.3162 2.78033 29.3162 3.15106 29.3162 3.42911C29.2172 4.63399 28.227 5.6535 27.1379 5.83887C26.0488 6.11692 25.2567 5.74619 24.7616 5.37546C24.1675 5.00472 23.9695 4.35594 24.0685 3.98521C24.1675 3.61448 24.3656 3.42911 24.6626 3.5218C24.9596 3.5218 25.1576 3.61448 25.2567 3.70716C25.4547 3.70716 25.5537 3.70716 25.8507 3.79985C26.3458 3.89253 26.7418 3.79985 26.8409 3.24375C26.8409 3.15106 26.8409 3.05838 26.7418 2.87302C26.6428 2.68765 26.4448 2.50228 26.1478 2.4096C25.6527 2.13155 24.8606 1.94619 24.0685 2.13155C23.2764 2.22424 22.3853 2.68765 21.7912 3.24375C21.0981 3.79985 20.7021 4.72667 20.6031 5.6535Z" fill="url(#paint3_linear_459_39776)"/>
<path d="M28.9199 8.24853C28.9199 5.46804 30.5041 3.24365 30.5041 3.24365C30.5041 3.24365 32.0883 5.46804 32.0883 8.24853C32.0883 11.029 30.5041 13.2534 30.5041 13.2534C30.5041 13.2534 28.9199 11.029 28.9199 8.24853Z" fill="url(#paint4_linear_459_39776)"/>
</g>
<defs>
<linearGradient id="paint0_linear_459_39776" x1="28.1904" y1="10.4386" x2="61.1185" y2="10.4386" gradientUnits="userSpaceOnUse">
<stop offset="0.1748" stop-color="#9B7624"/>
<stop offset="0.6509" stop-color="#DAC075"/>
<stop offset="1" stop-color="#C4A045"/>
</linearGradient>
<linearGradient id="paint1_linear_459_39776" x1="31.8549" y1="9.32074" x2="42.4165" y2="9.32074" gradientUnits="userSpaceOnUse">
<stop offset="0.1748" stop-color="#9B7624"/>
<stop offset="0.6509" stop-color="#DAC075"/>
<stop offset="1" stop-color="#C4A045"/>
</linearGradient>
<linearGradient id="paint2_linear_459_39776" x1="0.00840965" y1="10.3462" x2="32.9091" y2="10.3462" gradientUnits="userSpaceOnUse">
<stop offset="0.1748" stop-color="#9B7624"/>
<stop offset="0.6509" stop-color="#DAC075"/>
<stop offset="1" stop-color="#C4A045"/>
</linearGradient>
<linearGradient id="paint3_linear_459_39776" x1="18.783" y1="9.26545" x2="29.2915" y2="9.26545" gradientUnits="userSpaceOnUse">
<stop offset="0.1748" stop-color="#9B7624"/>
<stop offset="0.6509" stop-color="#DAC075"/>
<stop offset="1" stop-color="#C4A045"/>
</linearGradient>
<linearGradient id="paint4_linear_459_39776" x1="27.8742" y1="10.7355" x2="32.8445" y2="5.42567" gradientUnits="userSpaceOnUse">
<stop offset="0.1748" stop-color="#9B7624"/>
<stop offset="0.6509" stop-color="#DAC075"/>
<stop offset="1" stop-color="#C4A045"/>
</linearGradient>
<clipPath id="clip0_459_39776">
<rect width="66" height="19" fill="white"/>
</clipPath>
</defs>
</svg>
